<svg version="1.1" id="Layer_1" xmlns="http://www.w3.org/2000/svg" xmlns:xlink="http://www.w3.org/1999/xlink" x="0px" y="0px"
	 width="100%" viewBox="0 0 377 331" enable-background="new 0 0 377 331" xml:space="preserve">
<path fill="#FFFEFE" opacity="1.000000" stroke="none" 
	d="
M157.000000,332.000000 
	C105.016365,332.000000 53.032730,332.000000 1.024548,332.000000 
	C1.024548,221.717758 1.024548,111.435509 1.024548,1.076632 
	C126.575989,1.076632 252.152039,1.076632 377.864044,1.076632 
	C377.864044,111.333237 377.864044,221.666595 377.870148,331.999969 
	C313.229950,332.000000 248.583633,332.000000 183.590500,331.604675 
	C188.109665,330.118134 193.045471,329.270264 197.830536,327.897095 
	C234.912521,317.255646 260.456573,294.027466 274.286743,257.555969 
	C275.733459,257.095947 276.852020,256.804047 277.986450,256.600830 
	C287.523315,254.892319 289.998352,251.916672 289.963959,242.266998 
	C289.921356,230.313950 289.997681,218.359818 289.860962,206.407990 
	C289.727692,194.760773 286.598297,191.125900 275.257385,188.583862 
	C268.030334,166.371399 255.752716,148.194824 237.040482,134.305023 
	C237.425018,133.227890 237.624710,132.363190 238.132645,131.756592 
	C255.959518,110.466202 273.205719,88.499771 296.893188,73.201096 
	C308.244354,65.869896 320.353333,59.712002 332.843872,52.610657 
	C330.546692,49.817932 327.963562,46.232098 324.929382,43.080585 
	C318.385895,36.284119 314.666656,36.099842 306.536926,40.804550 
	C280.779144,55.710655 258.823151,75.105286 239.331482,97.415817 
	C232.123001,105.666779 225.142197,114.116661 217.695923,122.355865 
	C212.500793,120.455269 207.667282,118.674622 202.850220,116.514526 
	C207.687408,105.589668 212.400238,94.993294 217.351868,84.509712 
	C227.022949,64.034111 239.709091,45.664700 256.160370,30.013491 
	C262.146820,24.318169 268.296967,18.794895 275.274231,12.361654 
	C270.277679,9.264966 265.436157,6.254453 260.584167,3.260908 
	C257.566528,1.399106 254.360229,1.188401 251.816269,3.696195 
	C243.212677,12.177449 233.854492,20.123899 226.522522,29.616955 
	C210.732742,50.060738 198.386063,72.689636 187.922699,96.325829 
	C185.576935,101.624825 182.844498,106.752640 179.859161,111.854324 
	C154.195953,109.777832 130.853989,115.485382 109.704163,129.411652 
	C87.646179,143.935898 72.475075,163.761536 64.480690,189.356201 
	C61.972645,189.643829 59.798752,190.040543 57.694550,189.807648 
	C53.791363,189.375595 52.005127,190.551392 51.910866,194.795837 
	C51.643108,206.852524 50.920410,218.898651 50.607182,230.954941 
	C50.393436,239.182159 50.566288,247.419434 50.566288,255.843353 
	C56.136040,256.308990 60.900673,256.707336 65.737053,257.473022 
	C81.930840,298.876556 111.662018,323.237091 155.135925,330.796967 
	C155.806732,330.913605 156.380783,331.586639 157.000000,332.000000 
z"/>
<path fill="#D63333" opacity="1.000000" stroke="none" 
	d="
M157.428467,332.000000 
	C156.380783,331.586639 155.806732,330.913605 155.135925,330.796967 
	C111.662018,323.237091 81.930840,298.876556 66.041603,257.246887 
	C67.472717,256.571106 68.671036,256.488800 69.939842,256.655457 
	C70.666527,256.979279 71.322716,257.054108 72.303482,257.157196 
	C73.030945,257.341766 73.433830,257.498077 73.938538,257.878357 
	C74.690521,258.090576 75.340683,258.078827 76.401443,258.046143 
	C78.158043,258.212006 79.504021,258.398712 81.012421,258.872864 
	C83.168739,258.988678 85.162643,258.817078 87.494965,258.501465 
	C88.560951,258.271393 89.288513,258.185333 90.167709,258.305573 
	C90.927711,258.166321 91.536102,257.820801 92.434860,257.330688 
	C93.344849,256.993927 93.964455,256.801819 94.919304,256.736206 
	C96.347984,257.620575 97.441414,258.378479 98.693222,259.519592 
	C100.904312,260.289978 102.957016,260.677124 105.188156,261.294983 
	C106.297241,261.226257 107.227905,260.926788 108.543625,260.490601 
	C110.289047,260.257385 111.649399,260.160980 113.187546,260.294861 
	C114.296875,260.231201 115.228416,259.937256 116.543655,259.502197 
	C118.288460,259.263824 119.649582,259.166565 121.187912,259.299255 
	C122.296921,259.237061 123.228714,258.944855 124.544075,258.510864 
	C126.289047,258.270966 127.650436,258.172913 129.189850,258.303497 
	C130.298752,258.240845 131.229660,257.949524 132.544067,257.515991 
	C134.289413,257.274353 135.651260,257.174957 137.295731,257.344818 
	C146.089035,258.057861 154.597046,258.588074 163.113281,258.853058 
	C164.403854,258.893250 165.732788,257.700592 167.075989,256.617676 
	C167.174194,252.810226 167.240356,249.463242 167.660797,246.084961 
	C168.725845,245.968231 169.436615,245.882797 170.135498,245.858795 
	C170.123611,245.920227 170.199112,245.820404 170.145538,246.155548 
	C170.548111,247.375046 171.004257,248.259369 171.548264,249.571533 
	C172.057846,253.089783 170.248184,257.407867 176.018127,257.928955 
	C178.177719,258.004669 180.164902,257.802185 182.540222,257.472565 
	C184.289566,257.255066 185.650772,257.164703 187.167709,257.285522 
	C187.922363,257.115082 188.521271,256.733521 189.438416,256.194885 
	C195.404083,253.599899 198.546356,249.255524 199.779007,243.188049 
	C200.641388,243.131180 201.219635,243.127914 201.875824,243.485687 
	C205.286713,254.672104 211.949814,259.858032 222.729813,259.472809 
	C224.278671,259.417480 226.443436,257.688934 227.123474,256.190338 
	C228.513000,253.128204 229.086380,249.695755 229.995911,246.415817 
	C233.066986,255.866760 240.360199,257.499146 248.504959,257.613251 
	C256.991028,257.732147 265.478882,257.720032 273.965973,257.765167 
	C260.456573,294.027466 234.912521,317.255646 197.830536,327.897095 
	C193.045471,329.270264 188.109665,330.118134 183.121841,331.604675 
	C181.285645,332.000000 179.571289,332.000000 177.170166,331.669312 
	C171.988937,331.559113 167.494461,331.779541 163.000000,332.000000 
	C161.285645,332.000000 159.571289,332.000000 157.428467,332.000000 
z"/>
<path fill="#E57D7D" opacity="1.000000" stroke="none" 
	d="
M163.464645,332.000000 
	C167.494461,331.779541 171.988937,331.559113 176.741699,331.669312 
	C172.643097,332.000000 168.286194,332.000000 163.464645,332.000000 
z"/>
<path fill="#0A0808" opacity="1.000000" stroke="none" 
	d="
M69.869354,256.406494 
	C68.671036,256.488800 67.472717,256.571106 65.969856,256.879547 
	C60.900673,256.707336 56.136040,256.308990 50.566288,255.843353 
	C50.566288,247.419434 50.393436,239.182159 50.607182,230.954941 
	C50.920410,218.898651 51.643108,206.852524 51.910866,194.795837 
	C52.005127,190.551392 53.791363,189.375595 57.694550,189.807648 
	C59.798752,190.040543 61.972645,189.643829 64.844093,189.564133 
	C75.106682,190.405197 84.639877,191.218124 94.175087,192.006622 
	C94.633331,192.044525 95.116753,191.897247 95.575920,191.784973 
	C98.154587,191.154495 100.698669,190.235580 103.313812,189.940765 
	C106.175079,189.618164 109.100800,189.867371 110.642342,189.867371 
	C114.062614,179.167572 122.973816,174.991226 128.485962,167.682388 
	C134.452881,172.361008 139.717606,176.489059 145.184402,180.775558 
	C141.721024,183.847687 138.895111,186.354385 135.053299,189.762207 
	C141.743851,189.762207 146.866760,189.602219 151.973480,189.820587 
	C155.177109,189.957565 156.489990,188.898621 157.401077,185.664459 
	C162.354965,168.078964 167.542831,150.556854 172.877228,133.082245 
	C175.054001,125.951454 177.801971,118.995018 180.290070,111.959259 
	C182.844498,106.752640 185.576935,101.624825 187.922699,96.325829 
	C198.386063,72.689636 210.732742,50.060738 226.522522,29.616955 
	C233.854492,20.123899 243.212677,12.177449 251.816269,3.696195 
	C254.360229,1.188401 257.566528,1.399106 260.584167,3.260908 
	C265.436157,6.254453 270.277679,9.264966 275.274231,12.361654 
	C268.296967,18.794895 262.146820,24.318169 256.160370,30.013491 
	C239.709091,45.664700 227.022949,64.034111 217.351868,84.509712 
	C212.400238,94.993294 207.687408,105.589668 202.589630,116.751709 
	C194.773315,135.466888 187.386063,153.618439 182.929733,172.773331 
	C194.639008,156.007492 206.348282,139.241653 218.057556,122.475815 
	C225.142197,114.116661 232.123001,105.666779 239.331482,97.415817 
	C258.823151,75.105286 280.779144,55.710655 306.536926,40.804550 
	C314.666656,36.099842 318.385895,36.284119 324.929382,43.080585 
	C327.963562,46.232098 330.546692,49.817932 332.843872,52.610657 
	C320.353333,59.712002 308.244354,65.869896 296.893188,73.201096 
	C273.205719,88.499771 255.959518,110.466202 238.132645,131.756592 
	C237.624710,132.363190 237.425018,133.227890 236.737732,134.496124 
	C223.143784,152.220490 209.714630,169.300339 199.448364,188.734955 
	C200.450027,189.251465 200.875824,189.666473 201.293137,189.658066 
	C218.541489,189.311386 235.789139,188.928055 253.036713,188.542664 
	C253.858887,188.524292 254.681381,188.383087 255.500900,188.404999 
	C262.105255,188.581421 268.708893,188.783249 275.312775,188.977325 
	C286.598297,191.125900 289.727692,194.760773 289.860962,206.407990 
	C289.997681,218.359818 289.921356,230.313950 289.963959,242.266998 
	C289.998352,251.916672 287.523315,254.892319 277.986450,256.600830 
	C276.852020,256.804047 275.733459,257.095947 274.286743,257.555969 
	C265.478882,257.720032 256.991028,257.732147 248.504959,257.613251 
	C240.360199,257.499146 233.066986,255.866760 229.995911,246.415817 
	C229.086380,249.695755 228.513000,253.128204 227.123474,256.190338 
	C226.443436,257.688934 224.278671,259.417480 222.729813,259.472809 
	C211.949814,259.858032 205.286713,254.672104 201.968292,243.013672 
	C201.850983,233.141754 202.255280,224.072922 201.750198,215.054901 
	C200.998428,215.065292 200.246643,215.075684 199.494873,215.086060 
	C199.494873,224.471252 199.494873,233.856461 199.494873,243.241653 
	C198.546356,249.255524 195.404083,253.599899 189.139908,256.124023 
	C188.019424,256.498322 187.515701,256.786346 187.011963,257.074341 
	C185.650772,257.164703 184.289566,257.255066 182.104263,257.329346 
	C179.468658,257.425720 177.657181,257.538239 175.845688,257.650757 
	C170.248184,257.407867 172.057846,253.089783 171.710373,249.245529 
	C171.256119,247.601273 170.727615,246.710846 170.199112,245.820404 
	C170.199112,245.820404 170.123611,245.920227 169.985291,245.568420 
	C169.058975,244.951401 168.270950,244.686172 167.482941,244.420944 
	C167.424133,244.986038 167.365326,245.551147 167.306519,246.116241 
	C167.240356,249.463242 167.174194,252.810226 166.603973,256.643127 
	C159.380997,257.168030 152.662094,257.229034 145.943130,257.235840 
	C142.966507,257.238861 139.989792,257.132324 137.013107,257.075562 
	C135.651260,257.174957 134.289413,257.274353 132.225540,257.369873 
	C130.686279,257.602295 129.849045,257.838562 129.011826,258.074829 
	C127.650436,258.172913 126.289047,258.270966 124.224960,258.366333 
	C122.685081,258.598846 121.847893,258.834076 121.010696,259.069275 
	C119.649582,259.166565 118.288460,259.263824 116.224579,259.358337 
	C114.684456,259.591919 113.847099,259.828247 113.009750,260.064575 
	C111.649399,260.160980 110.289047,260.257385 108.223938,260.347626 
	C106.682693,260.582367 105.846214,260.823334 105.009727,261.064270 
	C102.957016,260.677124 100.904312,260.289978 98.828033,259.143738 
	C98.436104,257.276398 98.067749,256.168182 97.699394,255.059937 
	C96.660950,255.576538 95.622505,256.093140 94.584061,256.609711 
	C93.964455,256.801819 93.344849,256.993927 92.140350,257.234894 
	C91.042336,257.555603 90.529213,257.827454 90.016083,258.099304 
	C89.288513,258.185333 88.560951,258.271393 87.060638,258.355103 
	C84.475273,258.430359 82.662636,258.507904 80.850006,258.585449 
	C79.504021,258.398712 78.158043,258.212006 76.194229,257.821838 
	C74.996513,257.630402 74.416611,257.642395 73.836716,257.654388 
	C73.433830,257.498077 73.030945,257.341766 72.124359,256.905212 
	C71.036896,256.552185 70.453125,256.479340 69.869354,256.406494 
M71.837303,250.035889 
	C73.201958,250.532608 74.566620,251.029327 76.082581,252.103989 
	C77.057365,252.059875 78.032143,252.015778 79.865257,251.784103 
	C81.908104,251.848557 83.950943,251.913010 86.323448,252.476700 
	C87.238983,252.156174 88.154526,251.835648 89.677246,251.097137 
	C94.343910,249.752228 97.301048,246.700104 99.332024,241.699402 
	C99.139412,235.105209 98.946808,228.511002 98.315735,221.288101 
	C96.076714,219.342819 93.837692,217.397537 91.294510,215.188004 
	C91.286446,215.204086 91.475105,214.570297 91.861641,214.098709 
	C95.225815,209.994263 96.322433,205.439621 93.787468,200.653275 
	C91.373077,196.094574 86.653976,196.287811 82.368164,196.188583 
	C75.551208,196.030746 68.720490,196.333099 61.910656,196.062241 
	C58.811199,195.938980 57.749947,197.287949 56.909893,200.045914 
	C56.936981,200.696594 56.964069,201.347260 57.096661,202.853409 
	C57.264957,204.867157 55.547913,207.375900 59.524021,208.124771 
	C61.854008,208.563583 61.415241,214.411316 58.922543,215.881927 
	C58.263073,216.208832 57.603600,216.535736 56.871128,217.778915 
	C57.231636,220.958099 57.592144,224.137268 57.992054,227.862701 
	C58.544701,228.258530 59.097351,228.654358 59.871857,229.910873 
	C59.653111,232.850204 60.552982,236.806671 58.990929,238.524536 
	C55.344673,242.534546 57.368694,246.420120 56.948284,250.485977 
	C59.048279,250.677765 60.516769,250.811874 62.253326,251.417450 
	C62.852989,251.060638 63.452656,250.703827 64.505287,249.924133 
	C65.246124,249.570084 65.986969,249.216034 67.478928,249.006241 
	C68.691238,249.319321 69.903542,249.632401 71.837303,250.035889 
M256.509827,250.726944 
	C263.163696,250.724564 269.819305,250.814468 276.470947,250.691605 
	C282.157776,250.586594 283.979462,248.704468 283.992706,243.202423 
	C284.021942,231.059158 284.063934,218.915146 283.945068,206.772964 
	C283.921082,204.321716 283.576019,201.731064 282.681396,199.482162 
	C282.106903,198.037949 280.231598,196.067398 278.981079,196.096939 
	C266.126404,196.400726 253.274155,196.970169 240.442703,197.798569 
	C239.342468,197.869583 237.533035,200.314743 237.511917,201.679581 
	C237.295868,215.649368 237.316544,229.624268 237.419220,243.596680 
	C237.454437,248.387894 239.707428,250.520401 244.537582,250.692993 
	C248.192642,250.823608 251.855942,250.724030 256.509827,250.726944 
M145.025421,242.286377 
	C144.569351,237.642456 142.349258,236.320267 137.638290,237.293365 
	C132.039474,238.449875 126.241272,238.641190 120.292175,239.276062 
	C120.292175,234.522629 120.292175,230.455887 120.292175,225.821503 
	C124.875153,225.821503 129.170334,225.990341 133.437241,225.717285 
	C134.696625,225.636703 136.657440,224.524689 136.939651,223.508469 
	C137.666275,220.891739 137.633484,218.064133 137.943314,214.923569 
	C131.781662,214.640900 126.195610,214.384644 120.523994,214.124451 
	C119.382111,210.348022 119.730560,208.229034 124.337929,208.434311 
	C130.412445,208.704987 136.508118,208.500870 142.556229,208.500870 
	C142.556229,204.055206 142.556229,200.495605 142.556229,196.821152 
	C129.116943,196.821152 116.076904,196.821152 103.037537,196.821152 
	C103.037537,200.930695 103.037537,204.643204 103.037537,208.446838 
	C105.392342,208.655151 107.350571,208.828369 109.299957,209.000824 
	C108.572121,210.986862 108.357773,213.941010 107.175049,214.400040 
	C101.187126,216.724045 104.585823,221.640015 103.387665,224.147736 
	C105.393204,225.945724 107.881546,227.284653 107.732880,228.191101 
	C106.901787,233.258652 111.478432,240.050674 103.264328,242.983093 
	C103.699509,246.772141 104.129364,250.514816 104.617691,254.766586 
	C118.893066,252.953979 132.646118,251.207703 146.827423,249.407043 
	C146.180618,246.854752 145.699631,244.956726 145.025421,242.286377 
M193.192459,231.485641 
	C193.192459,219.746307 193.192459,208.006958 193.192459,196.345688 
	C188.693756,196.345688 185.114838,196.345688 180.908142,196.345688 
	C180.908142,201.712402 180.908142,206.739700 180.908142,211.186920 
	C175.759033,208.129700 171.102859,204.686874 165.912048,202.531876 
	C162.682327,201.191025 160.353073,200.186584 160.775116,196.195160 
	C156.669052,196.195160 152.936295,196.195160 148.890213,196.195160 
	C148.890213,214.410599 148.890213,232.307495 148.890213,250.422852 
	C152.909378,250.422852 156.640457,250.422852 161.092636,250.422852 
	C161.092636,238.106247 161.092636,226.105042 161.092636,213.931595 
	C167.849060,215.859314 177.021362,222.213150 179.181122,227.429550 
	C180.463364,230.526550 181.536163,235.722229 179.931244,237.580994 
	C176.657364,241.372742 178.259995,245.097244 177.942703,248.811218 
	C177.888184,249.449402 179.858322,250.857727 180.933380,250.900528 
	C189.341217,251.235214 193.161621,247.419617 193.190918,238.977631 
	C193.198441,236.811050 193.192352,234.644440 193.192459,231.485641 
M207.819626,226.501251 
	C207.825424,230.831314 207.718628,235.165192 207.865997,239.490433 
	C208.043213,244.691071 210.254929,248.803772 215.016647,251.242950 
	C220.019440,253.805649 221.491699,253.053833 222.983047,247.579712 
	C223.902237,244.205841 225.270538,240.870270 221.312836,238.369156 
	C220.879807,238.095474 220.687393,237.159073 220.684738,236.528793 
	C220.645737,227.261261 220.657883,217.993515 220.657883,208.163940 
	C224.267395,208.163940 227.408356,208.361847 230.500793,208.060913 
	C231.645416,207.949524 233.418304,206.827576 233.623383,205.887131 
	C234.319687,202.693710 234.443619,199.375504 234.856308,195.435379 
	C225.612091,195.435379 216.829178,195.435364 208.046280,195.435379 
	C197.044296,195.435379 197.040787,195.435364 196.926270,206.449219 
	C196.923340,206.730927 197.212982,207.015671 197.687836,207.893875 
	C201.377655,207.893875 205.403564,207.893875 207.916626,207.893875 
	C207.882141,214.151367 207.850861,219.827927 207.819626,226.501251 
M128.691940,177.038239 
	C126.541161,179.100586 124.497292,181.290985 122.215515,183.196457 
	C118.419243,186.366592 119.704994,188.555038 123.445137,190.776703 
	C127.341324,187.665939 131.140442,184.632675 135.468887,181.176804 
	C132.886551,179.383530 131.148346,178.176453 128.691940,177.038239 
M226.778351,226.443817 
	C227.712479,229.581253 224.405945,234.427765 231.090500,236.232544 
	C231.090500,229.479858 231.162567,223.428207 231.003052,217.382675 
	C230.982132,216.589737 229.774628,215.828094 229.116699,215.051941 
	C228.347351,215.886337 227.023010,216.654556 226.914124,217.567719 
	C226.603760,220.170776 226.788223,222.832840 226.778351,226.443817 
z"/>
<path fill="#D53333" opacity="1.000000" stroke="none" 
	d="
M179.859161,111.854317 
	C177.801971,118.995018 175.054001,125.951454 172.877228,133.082245 
	C167.542831,150.556854 162.354965,168.078964 157.401077,185.664459 
	C156.489990,188.898621 155.177109,189.957565 151.973480,189.820587 
	C146.866760,189.602219 141.743851,189.762207 135.053299,189.762207 
	C138.895111,186.354385 141.721024,183.847687 145.184402,180.775558 
	C139.717606,176.489059 134.452881,172.361008 128.485962,167.682388 
	C122.973816,174.991226 114.062614,179.167572 110.642342,189.867371 
	C109.100800,189.867371 106.175079,189.618164 103.313812,189.940765 
	C100.698669,190.235580 98.154587,191.154495 95.575920,191.784973 
	C95.116753,191.897247 94.633331,192.044525 94.175087,192.006622 
	C84.639877,191.218124 75.106682,190.405197 65.209686,189.389160 
	C72.475075,163.761536 87.646179,143.935898 109.704163,129.411652 
	C130.853989,115.485382 154.195953,109.777832 179.859161,111.854317 
z"/>
<path fill="#D33232" opacity="1.000000" stroke="none" 
	d="
M275.257385,188.583862 
	C268.708893,188.783249 262.105255,188.581421 255.500900,188.404999 
	C254.681381,188.383087 253.858887,188.524292 253.036713,188.542664 
	C235.789139,188.928055 218.541489,189.311386 201.293137,189.658066 
	C200.875824,189.666473 200.450027,189.251465 199.448364,188.734955 
	C209.714630,169.300339 223.143784,152.220490 236.696594,134.828918 
	C255.752716,148.194824 268.030334,166.371399 275.257385,188.583862 
z"/>
<path fill="#CC3131" opacity="1.000000" stroke="none" 
	d="
M217.695923,122.355865 
	C206.348282,139.241653 194.639008,156.007492 182.929733,172.773331 
	C187.386063,153.618439 194.773315,135.466888 202.573181,117.131165 
	C207.667282,118.674622 212.500793,120.455269 217.695923,122.355865 
z"/>
<path fill="#841F1F" opacity="1.000000" stroke="none" 
	d="
M199.779007,243.188049 
	C199.494873,233.856461 199.494873,224.471252 199.494873,215.086060 
	C200.246643,215.075684 200.998428,215.065292 201.750198,215.054901 
	C202.255280,224.072922 201.850983,233.141754 201.890350,242.652618 
	C201.219635,243.127914 200.641388,243.131180 199.779007,243.188049 
z"/>
<path fill="#9B2424" opacity="1.000000" stroke="none" 
	d="
M137.295731,257.344818 
	C139.989792,257.132324 142.966507,257.238861 145.943130,257.235840 
	C152.662094,257.229034 159.380997,257.168030 166.571945,257.103607 
	C165.732788,257.700592 164.403854,258.893250 163.113281,258.853058 
	C154.597046,258.588074 146.089035,258.057861 137.295731,257.344818 
z"/>
<path fill="#9B2424" opacity="1.000000" stroke="none" 
	d="
M81.012421,258.872833 
	C82.662636,258.507904 84.475273,258.430359 86.722221,258.499146 
	C85.162643,258.817078 83.168739,258.988678 81.012421,258.872833 
z"/>
<path fill="#9B2424" opacity="1.000000" stroke="none" 
	d="
M176.018127,257.928955 
	C177.657181,257.538239 179.468658,257.425720 181.716110,257.456482 
	C180.164902,257.802185 178.177719,258.004669 176.018127,257.928955 
z"/>
<path fill="#9B2424" opacity="1.000000" stroke="none" 
	d="
M94.919312,256.736206 
	C95.622505,256.093140 96.660950,255.576538 97.699394,255.059937 
	C98.067749,256.168182 98.436104,257.276398 98.669647,258.760498 
	C97.441414,258.378479 96.347984,257.620575 94.919312,256.736206 
z"/>
<path fill="#9B2424" opacity="1.000000" stroke="none" 
	d="
M113.187546,260.294861 
	C113.847099,259.828247 114.684456,259.591919 115.840881,259.499451 
	C115.228416,259.937256 114.296875,260.231201 113.187546,260.294861 
z"/>
<path fill="#9B2424" opacity="1.000000" stroke="none" 
	d="
M121.187912,259.299286 
	C121.847893,258.834076 122.685081,258.598846 123.841385,258.508118 
	C123.228714,258.944855 122.296921,259.237061 121.187912,259.299286 
z"/>
<path fill="#9B2424" opacity="1.000000" stroke="none" 
	d="
M105.188156,261.294983 
	C105.846214,260.823334 106.682693,260.582367 107.838867,260.484375 
	C107.227905,260.926788 106.297241,261.226257 105.188156,261.294983 
z"/>
<path fill="#9B2424" opacity="1.000000" stroke="none" 
	d="
M129.189850,258.303467 
	C129.849045,257.838562 130.686279,257.602295 131.842041,257.512146 
	C131.229660,257.949524 130.298752,258.240845 129.189850,258.303467 
z"/>
<path fill="#9B2424" opacity="1.000000" stroke="none" 
	d="
M170.145538,246.155548 
	C170.727615,246.710846 171.256119,247.601273 171.622513,248.817719 
	C171.004257,248.259369 170.548111,247.375046 170.145538,246.155548 
z"/>
<path fill="#9B2424" opacity="1.000000" stroke="none" 
	d="
M167.660797,246.084961 
	C167.365326,245.551147 167.424133,244.986038 167.482941,244.420944 
	C168.270950,244.686172 169.058975,244.951401 169.997192,245.506989 
	C169.436615,245.882797 168.725845,245.968231 167.660797,246.084961 
z"/>
<path fill="#9B2424" opacity="1.000000" stroke="none" 
	d="
M69.939842,256.655487 
	C70.453125,256.479340 71.036896,256.552185 71.799789,256.876984 
	C71.322716,257.054108 70.666527,256.979279 69.939842,256.655487 
z"/>
<path fill="#9B2424" opacity="1.000000" stroke="none" 
	d="
M187.167709,257.285522 
	C187.515701,256.786346 188.019424,256.498322 188.821655,256.281128 
	C188.521271,256.733521 187.922363,257.115082 187.167709,257.285522 
z"/>
<path fill="#9B2424" opacity="1.000000" stroke="none" 
	d="
M73.938538,257.878357 
	C74.416611,257.642395 74.996513,257.630402 75.783623,257.842712 
	C75.340683,258.078827 74.690521,258.090576 73.938538,257.878357 
z"/>
<path fill="#9B2424" opacity="1.000000" stroke="none" 
	d="
M90.167709,258.305573 
	C90.529213,257.827454 91.042336,257.555603 91.849976,257.379517 
	C91.536102,257.820801 90.927711,258.166321 90.167709,258.305573 
z"/>
<path fill="#F2F2F2" opacity="1.000000" stroke="none" 
	d="
M256.012695,250.726929 
	C251.855942,250.724030 248.192642,250.823608 244.537582,250.692993 
	C239.707428,250.520401 237.454437,248.387894 237.419220,243.596680 
	C237.316544,229.624268 237.295868,215.649368 237.511917,201.679581 
	C237.533035,200.314743 239.342468,197.869583 240.442703,197.798569 
	C253.274155,196.970169 266.126404,196.400726 278.981079,196.096939 
	C280.231598,196.067398 282.106903,198.037949 282.681396,199.482162 
	C283.576019,201.731064 283.921082,204.321716 283.945068,206.772964 
	C284.063934,218.915146 284.021942,231.059158 283.992706,243.202423 
	C283.979462,248.704468 282.157776,250.586594 276.470947,250.691605 
	C269.819305,250.814468 263.163696,250.724564 256.012695,250.726929 
M271.655426,218.557220 
	C271.655426,215.115814 271.655426,211.674393 271.655426,208.147186 
	C264.074768,208.147186 257.180878,208.147186 250.031754,208.147186 
	C250.031754,218.370239 250.031754,228.256683 250.031754,238.359650 
	C257.299377,238.359650 264.298187,238.359650 271.655334,238.359650 
	C271.655334,231.799805 271.655334,225.669846 271.655426,218.557220 
z"/>
<path fill="#F2F2F2" opacity="1.000000" stroke="none" 
	d="
M59.070366,216.391266 
	C61.415241,214.411316 61.854008,208.563583 59.524021,208.124771 
	C55.547913,207.375900 57.264957,204.867157 57.256508,202.225922 
	C57.416103,201.042191 57.415848,200.485947 57.415592,199.929688 
	C57.749947,197.287949 58.811199,195.938980 61.910656,196.062241 
	C68.720490,196.333099 75.551208,196.030746 82.368164,196.188583 
	C86.653976,196.287811 91.373077,196.094574 93.787468,200.653275 
	C96.322433,205.439621 95.225815,209.994263 91.861641,214.098709 
	C91.475105,214.570297 91.286446,215.204086 91.294510,215.188004 
	C93.837692,217.397537 96.076714,219.342819 98.426743,222.063965 
	C98.586876,229.252228 98.635994,235.664642 98.685112,242.077042 
	C97.301048,246.700104 94.343910,249.752228 89.061821,251.225128 
	C87.628860,251.561234 86.811325,251.769348 85.993790,251.977448 
	C83.950943,251.913010 81.908104,251.848557 79.163673,251.706512 
	C77.618484,251.594650 76.774879,251.560364 75.931274,251.526062 
	C74.566620,251.029327 73.201958,250.532608 71.371170,249.600891 
	C71.501862,247.136536 72.204308,245.131149 72.671524,243.072403 
	C73.433624,239.714386 75.208641,239.139267 78.469406,239.978439 
	C85.256889,241.725204 86.252365,240.859192 86.729904,233.841568 
	C86.882545,231.598373 86.753799,229.336014 86.753799,227.251450 
	C81.447693,227.251450 76.894241,227.251450 71.962318,227.251450 
	C72.131279,235.260986 72.224655,242.808151 66.727814,248.861984 
	C65.986969,249.216034 65.246124,249.570084 63.998692,250.081177 
	C62.989819,250.474152 62.487541,250.710068 61.985260,250.945984 
	C60.516769,250.811874 59.048279,250.677765 56.948284,250.485977 
	C57.368694,246.420120 55.344673,242.534546 58.990929,238.524536 
	C60.552982,236.806671 59.653111,232.850204 59.874184,229.170349 
	C59.235222,228.058701 58.593937,227.687576 57.952652,227.316452 
	C57.592144,224.137268 57.231636,220.958099 57.272835,217.286972 
	C58.139816,216.660431 58.605091,216.525848 59.070366,216.391266 
M71.920013,213.090988 
	C72.580856,213.962631 73.185974,215.531265 73.911858,215.589294 
	C77.729736,215.894501 80.860329,212.501801 81.074150,208.212082 
	C72.621933,206.974106 72.253815,207.135284 71.920013,213.090988 
z"/>
<path fill="#F0F0F0" opacity="1.000000" stroke="none" 
	d="
M145.122025,242.672546 
	C145.699631,244.956726 146.180618,246.854752 146.827423,249.407043 
	C132.646118,251.207703 118.893066,252.953979 104.617691,254.766586 
	C104.129364,250.514816 103.699509,246.772141 103.264328,242.983093 
	C111.478432,240.050674 106.901787,233.258652 107.732880,228.191101 
	C107.881546,227.284653 105.393204,225.945724 103.387665,224.147736 
	C104.585823,221.640015 101.187126,216.724045 107.175049,214.400040 
	C108.357773,213.941010 108.572121,210.986862 109.299957,209.000824 
	C107.350571,208.828369 105.392342,208.655151 103.037537,208.446838 
	C103.037537,204.643204 103.037537,200.930695 103.037537,196.821152 
	C116.076904,196.821152 129.116943,196.821152 142.556229,196.821152 
	C142.556229,200.495605 142.556229,204.055206 142.556229,208.500870 
	C136.508118,208.500870 130.412445,208.704987 124.337929,208.434311 
	C119.730560,208.229034 119.382111,210.348022 120.523994,214.124451 
	C126.195610,214.384644 131.781662,214.640900 137.943314,214.923569 
	C137.633484,218.064133 137.666275,220.891739 136.939651,223.508469 
	C136.657440,224.524689 134.696625,225.636703 133.437241,225.717285 
	C129.170334,225.990341 124.875153,225.821503 120.292175,225.821503 
	C120.292175,230.455887 120.292175,234.522629 120.292175,239.276062 
	C126.241272,238.641190 132.039474,238.449875 137.638290,237.293365 
	C142.349258,236.320267 144.569351,237.642456 145.122025,242.672546 
z"/>
<path fill="#F4F4F4" opacity="1.000000" stroke="none" 
	d="
M193.192474,231.981750 
	C193.192352,234.644440 193.198441,236.811050 193.190918,238.977631 
	C193.161621,247.419617 189.341217,251.235214 180.933380,250.900528 
	C179.858322,250.857727 177.888184,249.449402 177.942703,248.811218 
	C178.259995,245.097244 176.657364,241.372742 179.931244,237.580994 
	C181.536163,235.722229 180.463364,230.526550 179.181122,227.429550 
	C177.021362,222.213150 167.849060,215.859314 161.092636,213.931595 
	C161.092636,226.105042 161.092636,238.106247 161.092636,250.422852 
	C156.640457,250.422852 152.909378,250.422852 148.890213,250.422852 
	C148.890213,232.307495 148.890213,214.410599 148.890213,196.195160 
	C152.936295,196.195160 156.669052,196.195160 160.775116,196.195160 
	C160.353073,200.186584 162.682327,201.191025 165.912048,202.531876 
	C171.102859,204.686874 175.759033,208.129700 180.908142,211.186920 
	C180.908142,206.739700 180.908142,201.712402 180.908142,196.345688 
	C185.114838,196.345688 188.693756,196.345688 193.192459,196.345688 
	C193.192459,208.006958 193.192459,219.746307 193.192474,231.981750 
z"/>
<path fill="#F1F1F1" opacity="1.000000" stroke="none" 
	d="
M207.819611,226.002869 
	C207.850861,219.827927 207.882141,214.151367 207.916626,207.893875 
	C205.403564,207.893875 201.377655,207.893875 197.687836,207.893875 
	C197.212982,207.015671 196.923340,206.730927 196.926270,206.449219 
	C197.040787,195.435364 197.044296,195.435379 208.046280,195.435379 
	C216.829178,195.435364 225.612091,195.435379 234.856308,195.435379 
	C234.443619,199.375504 234.319687,202.693710 233.623383,205.887131 
	C233.418304,206.827576 231.645416,207.949524 230.500793,208.060913 
	C227.408356,208.361847 224.267395,208.163940 220.657883,208.163940 
	C220.657883,217.993515 220.645737,227.261261 220.684738,236.528793 
	C220.687393,237.159073 220.879807,238.095474 221.312836,238.369156 
	C225.270538,240.870270 223.902237,244.205841 222.983047,247.579712 
	C221.491699,253.053833 220.019440,253.805649 215.016647,251.242950 
	C210.254929,248.803772 208.043213,244.691071 207.865997,239.490433 
	C207.718628,235.165192 207.825424,230.831314 207.819611,226.002869 
z"/>
<path fill="#262626" opacity="1.000000" stroke="none" 
	d="
M67.103371,248.934113 
	C72.224655,242.808151 72.131279,235.260986 71.962318,227.251450 
	C76.894241,227.251450 81.447693,227.251450 86.753799,227.251450 
	C86.753799,229.336014 86.882545,231.598373 86.729904,233.841568 
	C86.252365,240.859192 85.256889,241.725204 78.469406,239.978439 
	C75.208641,239.139267 73.433624,239.714386 72.671524,243.072403 
	C72.204308,245.131149 71.501862,247.136536 71.010445,249.555695 
	C69.903542,249.632401 68.691238,249.319321 67.103371,248.934113 
z"/>
<path fill="#DEDEDE" opacity="1.000000" stroke="none" 
	d="
M129.051041,177.003815 
	C131.148346,178.176453 132.886551,179.383530 135.468887,181.176804 
	C131.140442,184.632675 127.341324,187.665939 123.445137,190.776703 
	C119.704994,188.555038 118.419243,186.366592 122.215515,183.196457 
	C124.497292,181.290985 126.541161,179.100586 129.051041,177.003815 
z"/>
<path fill="#BC2C2C" opacity="1.000000" stroke="none" 
	d="
M226.778168,225.957748 
	C226.788223,222.832840 226.603760,220.170776 226.914124,217.567719 
	C227.023010,216.654556 228.347351,215.886337 229.116699,215.051941 
	C229.774628,215.828094 230.982132,216.589737 231.003052,217.382675 
	C231.162567,223.428207 231.090500,229.479858 231.090500,236.232544 
	C224.405945,234.427765 227.712479,229.581253 226.778168,225.957748 
z"/>
<path fill="#262626" opacity="1.000000" stroke="none" 
	d="
M99.008568,241.888214 
	C98.635994,235.664642 98.586876,229.252228 98.645981,222.378326 
	C98.946808,228.511002 99.139412,235.105209 99.008568,241.888214 
z"/>
<path fill="#262626" opacity="1.000000" stroke="none" 
	d="
M76.006927,251.815033 
	C76.774879,251.560364 77.618484,251.594650 78.734512,251.800308 
	C78.032143,252.015778 77.057365,252.059875 76.006927,251.815033 
z"/>
<path fill="#262626" opacity="1.000000" stroke="none" 
	d="
M86.158615,252.227081 
	C86.811325,251.769348 87.628860,251.561234 88.758232,251.434128 
	C88.154526,251.835648 87.238983,252.156174 86.158615,252.227081 
z"/>
<path fill="#262626" opacity="1.000000" stroke="none" 
	d="
M62.119293,251.181717 
	C62.487541,250.710068 62.989819,250.474152 63.772209,250.292618 
	C63.452656,250.703827 62.852989,251.060638 62.119293,251.181717 
z"/>
<path fill="#262626" opacity="1.000000" stroke="none" 
	d="
M57.972351,227.589569 
	C58.593937,227.687576 59.235222,228.058701 59.763252,228.740005 
	C59.097351,228.654358 58.544701,228.258530 57.972351,227.589569 
z"/>
<path fill="#262626" opacity="1.000000" stroke="none" 
	d="
M58.996456,216.136597 
	C58.605091,216.525848 58.139816,216.660431 57.309334,216.828827 
	C57.603600,216.535736 58.263073,216.208832 58.996456,216.136597 
z"/>
<path fill="#262626" opacity="1.000000" stroke="none" 
	d="
M57.162743,199.987793 
	C57.415848,200.485947 57.416103,201.042191 57.203758,201.798187 
	C56.964069,201.347260 56.936981,200.696594 57.162743,199.987793 
z"/>
<path fill="#171111" opacity="1.000000" stroke="none" 
	d="
M271.655396,219.048553 
	C271.655334,225.669846 271.655334,231.799805 271.655334,238.359650 
	C264.298187,238.359650 257.299377,238.359650 250.031754,238.359650 
	C250.031754,228.256683 250.031754,218.370239 250.031754,208.147186 
	C257.180878,208.147186 264.074768,208.147186 271.655426,208.147186 
	C271.655426,211.674393 271.655426,215.115814 271.655396,219.048553 
M265.130127,222.531921 
	C264.247375,220.046814 267.203186,216.213928 262.853790,215.017731 
	C257.674225,213.593170 256.077271,215.020599 256.058197,220.446289 
	C256.050659,222.593506 256.215698,224.755219 256.021454,226.884735 
	C255.692642,230.489029 256.528076,232.250320 260.799072,232.191971 
	C264.972687,232.134949 265.421844,230.167160 265.145874,226.963852 
	C265.046997,225.816177 265.130219,224.652832 265.130127,222.531921 
z"/>
<path fill="#242424" opacity="1.000000" stroke="none" 
	d="
M71.918808,212.656128 
	C72.253815,207.135284 72.621933,206.974106 81.074150,208.212082 
	C80.860329,212.501801 77.729736,215.894501 73.911858,215.589294 
	C73.185974,215.531265 72.580856,213.962631 71.918808,212.656128 
z"/>
<path fill="#C72E2E" opacity="1.000000" stroke="none" 
	d="
M265.130249,223.014282 
	C265.130219,224.652832 265.046997,225.816177 265.145874,226.963852 
	C265.421844,230.167160 264.972687,232.134949 260.799072,232.191971 
	C256.528076,232.250320 255.692642,230.489029 256.021454,226.884735 
	C256.215698,224.755219 256.050659,222.593506 256.058197,220.446289 
	C256.077271,215.020599 257.674225,213.593170 262.853790,215.017731 
	C267.203186,216.213928 264.247375,220.046814 265.130249,223.014282 
z"/>
</svg>